Patient4_TMGait_0pt5_01_left_32_GRF.mot
version=1
nRows=45
nColumns=19
inDegrees=no
endheader
time	F1x	F1y	F1z	M1x	M1y	M1z	F2x	F2y	F2z	M2x	M2y	M2z	EC1x	EC1y	EC1z	EC2x	EC2y	EC2z
42.68	-3.664	6.8378	-1.5682	-1.7545	0.90668	12.3839	-41.958	721.1025	-59.5526	252.186	72.2693	677.1303	-0.0592	0.0182	-0.0073	-0.0462	0.0165	0.9585
42.6933	-2.3973	5.0141	-1.0346	-1.3209	0.55612	8.7501	-39.3119	722.642	-60.855	253.1535	71.8436	678.4561	-0.0592	0.0182	-0.0073	-0.0462	0.0165	0.9585
42.7066	-1.3445	3.495	-0.58616	-0.96214	0.26427	5.7212	-36.7276	726.2752	-61.7914	254.7808	71.1213	680.6313	-0.0592	0.0182	-0.0073	-0.0462	0.0165	0.9585
42.7199	-0.55841	2.3683	-0.23829	-0.7012	0.040348	3.4547	-34.4031	732.3228	-62.3289	257.1632	70.1733	683.9248	-0.0592	0.0182	-0.0073	-0.0462	0.0165	0.9585
42.7331	-0.028231	1.6222	0.0065993	-0.53646	-0.1108	1.921	-32.4502	740.6908	-62.5125	260.2717	69.0817	688.3788	-0.0592	0.0182	-0.0073	-0.0462	0.0165	0.9585
42.7464	0.27791	1.1952	0.16696	-0.45171	-0.20711	1.0092	-30.8676	750.8448	-62.442	263.9325	67.9301	693.6859	-0.0592	0.0182	-0.0073	-0.0462	0.0165	0.9585
42.7597	0.4146	0.9884	0.25725	-0.42025	-0.25926	0.54581	-29.5742	761.8815	-62.2025	267.8461	66.7541	699.2118	-0.0592	0.0182	-0.0073	-0.0462	0.0165	0.9585
42.773	0.42047	0.89855	0.30051	-0.40967	-0.28877	0.36583	-28.4296	772.6273	-61.8655	271.6151	65.5539	704.0615	-0.0592	0.0182	-0.0073	-0.0462	0.0165	0.9585
42.7863	0.34471	0.81626	0.30733	-0.38653	-0.30162	0.28915	-27.2718	781.8106	-61.4624	274.8039	64.2853	707.23	-0.0592	0.0182	-0.0073	-0.0462	0.0165	0.9585
42.7996	0.21541	0.63549	0.30131	-0.31695	-0.32247	0.16722	-25.9378	788.2306	-61.012	276.9994	62.9022	707.7512	-0.0592	0.0182	-0.0073	-0.0462	0.0165	0.9585
42.8129	0.053671	0.2537	0.28479	-0.16795	-0.35233	-0.13203	-24.265	790.9631	-60.5046	277.8856	61.3416	704.8644	-0.0592	0.0182	-0.0073	-0.0462	0.0165	0.9585
42.8261	-0.11127	-0.42345	0.27067	0.092406	-0.38961	-0.72672	-22.1044	789.5226	-59.9349	277.2994	59.5518	698.1718	-0.0592	0.0182	-0.0073	-0.0462	0.0165	0.9585
42.8394	-0.25497	-1.4557	0.25239	0.48634	-0.41395	-1.6853	-19.3135	783.9311	-59.3166	275.258	57.501	687.692	-0.0592	0.0182	-0.0073	-0.0462	0.0165	0.9585
42.8527	-0.32588	-2.8673	0.23953	1.0213	-0.41435	-3.0376	-15.7857	774.7583	-58.6889	271.9735	55.1908	673.9076	-0.0592	0.0182	-0.0073	-0.0462	0.0165	0.9585
42.866	-0.2691	-4.5888	0.22237	1.6703	-0.36236	-4.7041	-11.4587	763.0888	-58.1043	267.8404	52.6524	657.743	-0.0592	0.0182	-0.0073	-0.0462	0.0165	0.9585
42.8793	0.0032958	-6.4246	0.20504	2.3594	-0.23273	-6.4792	-6.3361	750.3702	-57.6224	263.3808	49.9415	640.4348	-0.0592	0.0182	-0.0073	-0.0462	0.0165	0.9585
42.8926	0.59366	-7.9621	0.17624	2.9343	0.02096	-7.9563	-0.50567	738.1693	-57.3056	259.1572	47.1397	623.3428	-0.0592	0.0182	-0.0073	-0.0462	0.0165	0.9585
42.9059	1.5993	-8.5216	0.14517	3.1402	0.42389	-8.4682	5.8764	727.8624	-57.2084	255.6605	44.3441	607.6804	-0.0592	0.0182	-0.0073	-0.0462	0.0165	0.9585
42.9191	3.1104	-7.1085	0.1145	2.6017	1.0013	-7.0574	12.5862	720.3757	-57.3626	253.2151	41.6504	594.3052	-0.0592	0.0182	-0.0073	-0.0462	0.0165	0.9585
42.9324	5.1446	-2.3882	0.11083	0.81291	1.7333	-2.4279	19.3522	715.9612	-57.7565	251.9021	39.1352	583.5416	-0.0592	0.0182	-0.0073	-0.0462	0.0165	0.9585
42.9457	7.6151	7.243	0.15868	-2.8374	2.5606	6.9739	25.8532	714.0498	-58.3311	251.5079	36.8592	575.0813	-0.0592	0.0182	-0.0073	-0.0462	0.0165	0.9585
42.959	10.2354	23.4692	0.29374	-8.9952	3.3384	22.8018	31.7463	713.2061	-58.9697	251.5086	34.8497	567.9386	-0.0592	0.0182	-0.0073	-0.0462	0.0165	0.9585
42.9723	12.4554	47.6879	0.54967	-18.1996	3.8249	46.427	36.697	711.2775	-59.4904	251.1266	33.0865	560.5799	-0.0592	0.0182	-0.0073	-0.0462	0.0165	0.9585
42.9856	13.4095	80.4635	0.97515	-30.6722	3.6552	78.4156	40.3886	705.7102	-59.6522	249.4414	31.5116	551.1771	-0.0592	0.0182	-0.0073	-0.0462	0.0165	0.9585
42.9989	12.1158	120.9099	1.6246	-46.0819	2.4249	117.9134	42.5545	693.9795	-59.1935	245.5422	30.0442	537.9128	-0.0592	0.0182	-0.0073	-0.0462	0.0165	0.9585
43.0121	8.383	166.4878	2.6428	-63.4578	-0.059376	162.4008	43.0124	674.145	-57.8916	238.7268	28.6075	519.3986	-0.0592	0.0182	-0.0073	-0.0462	0.0165	0.9585
43.0254	3.2184	213.2098	4.3831	-81.2653	-3.7474	207.8319	41.7451	645.3621	-55.61	228.6872	27.1313	495.0284	-0.0592	0.0182	-0.0073	-0.0462	0.0165	0.9585
43.0387	-2.2723	257.4483	7.2296	-98.115	-8.5641	250.4228	38.9579	608.2137	-52.3529	215.6323	25.5708	465.1951	-0.0592	0.0182	-0.0073	-0.0462	0.0165	0.9585
43.052	-7.5068	298.5693	10.8804	-113.776	-13.9593	289.3542	35.1101	564.6914	-48.2535	200.2779	23.8715	431.2636	-0.0592	0.0182	-0.0073	-0.0462	0.0165	0.9585
43.0653	-12.1883	338.245	15.0682	-128.8948	-19.5401	326.1692	30.8346	517.4458	-43.604	183.5805	22.0241	395.0182	-0.0592	0.0182	-0.0073	-0.0462	0.0165	0.9585
43.0786	-16.2139	378.4275	19.4525	-144.226	-24.9275	362.7288	26.6938	468.8395	-38.6951	166.3965	20.0192	358.0293	-0.0592	0.0182	-0.0073	-0.0462	0.0165	0.9585
43.0919	-19.5295	420.2837	23.8667	-160.2056	-29.9396	400.1426	23.0707	420.4034	-33.7794	149.281	17.875	321.2716	-0.0592	0.0182	-0.0073	-0.0462	0.0165	0.9585
43.1051	-22.0292	464.0013	28.1235	-176.8792	-34.3695	438.5615	20.1025	372.7944	-29.0495	132.4674	15.6426	285.1296	-0.0592	0.0182	-0.0073	-0.0462	0.0165	0.9585
43.1184	-23.6338	508.9799	32.2154	-193.9715	-38.1997	477.4479	17.6994	326.0154	-24.6477	115.9475	13.4196	249.561	-0.0592	0.0182	-0.0073	-0.0462	0.0165	0.9585
43.1317	-24.2597	554.095	36.1882	-211.0012	-41.4724	515.7819	15.6544	279.8184	-20.6412	99.62	11.2978	214.3694	-0.0592	0.0182	-0.0073	-0.0462	0.0165	0.9585
43.145	-23.9158	598.0754	40.2449	-227.4265	-44.4136	552.4555	13.6875	234.1528	-17.0499	83.4547	9.3711	179.5424	-0.0592	0.0182	-0.0073	-0.0462	0.0165	0.9585
43.1583	-22.7311	639.7208	44.5026	-242.7501	-47.2119	586.4484	11.5679	189.4935	-13.857	67.6147	7.7039	145.4619	-0.0592	0.0182	-0.0073	-0.0462	0.0165	0.9585
43.1716	-20.9367	677.9878	49.0949	-256.5499	-50.1044	616.9353	9.2005	146.9707	-11.0619	52.5009	6.3404	113.0012	-0.0592	0.0182	-0.0073	-0.0462	0.0165	0.9585
43.1849	-18.784	712.0341	53.9733	-268.5055	-53.1582	643.2824	6.694	108.1525	-8.6495	38.6775	5.2509	83.348	-0.0592	0.0182	-0.0073	-0.0462	0.0165	0.9585
43.1981	-16.4747	741.1506	58.993	-278.3722	-56.3314	664.9726	4.3031	74.5735	-6.5846	26.7023	4.3463	57.6638	-0.0592	0.0182	-0.0073	-0.0462	0.0165	0.9585
43.2114	-14.1519	764.713	63.8035	-285.9663	-59.3646	681.5546	2.2867	47.2487	-4.7973	16.9492	3.5089	36.7208	-0.0592	0.0182	-0.0073	-0.0462	0.0165	0.9585
43.2247	-11.8917	782.1975	68.031	-291.1651	-61.9489	692.6638	0.78567	26.5108	-3.2554	9.5441	2.6845	20.7891	-0.0592	0.0182	-0.0073	-0.0462	0.0165	0.9585
43.238	-9.7129	793.3239	71.3084	-293.9413	-63.7519	698.1394	-0.17415	12.0285	-1.9744	4.3713	1.8886	9.6386	-0.0592	0.0182	-0.0073	-0.0462	0.0165	0.9585
43.2513	-7.583	798.1499	73.4763	-294.3795	-64.608	698.0991	-0.69183	2.9169	-1.0027	1.1146	1.2054	2.6086	-0.0592	0.0182	-0.0073	-0.0462	0.0165	0.9585
43.2646	-5.4634	797.1398	74.5375	-292.6982	-64.4912	693.0087	-0.90259	-2.0236	-0.33875	-0.65607	0.68333	-1.2097	-0.0592	0.0182	-0.0073	-0.0462	0.0165	0.9585
